<svg id="e07cd686-1d0f-4ae1-8aeb-17738b07bb34" data-name="Layer 1" xmlns="http://www.w3.org/2000/svg" viewBox="0 0 400 100" fill="white">
  <g>
    <path d="M101.84,125h-.34V25h3.91v96.43A3.57,3.57,0,0,1,101.84,125Z" transform="translate(-101.5 -25)"/>
    <path d="M105.41,25H101.5V125h.34a3.57,3.57,0,0,0,3.57-3.57V25Z" transform="translate(-101.5 -25)"/>
  </g>
  <g>
    <rect x="30.53" y="4" width="3.91" height="24"/>
    <polygon points="34.44 4 30.53 4 30.53 28 34.44 28 34.44 4 34.44 4"/>
  </g>
  <g>
    <rect x="3.13" width="31.31" height="5"/>
    <polygon points="34.44 0 3.13 0 3.13 5 34.44 5 34.44 0 34.44 0"/>
  </g>
  <g>
    <path d="M129.81,86.31l2,2.57a.36.36,0,0,1,0,.42l-27.26,34.83a.31.31,0,0,1-.5,0l-2.36-3a.36.36,0,0,1,0-.42l26.93-34.39A.71.71,0,0,1,129.81,86.31Z" transform="translate(-101.5 -25)"/>
    <path d="M129.22,86a.73.73,0,0,0-.59.31L101.7,120.7a.36.36,0,0,0,0,.42l2.36,3a.31.31,0,0,0,.5,0L131.82,89.3a.36.36,0,0,0,0-.42l-2-2.57a.74.74,0,0,0-.59-.31Z" transform="translate(-101.5 -25)"/>
  </g>
  <g>
    <path d="M129.68,91H117.94V86h11.42a.32.32,0,0,1,.32.32Z" transform="translate(-101.5 -25)"/>
    <path d="M129.36,86H117.94v5h11.74V86.32a.32.32,0,0,0-.32-.32Z" transform="translate(-101.5 -25)"/>
  </g>
  <g>
    <path d="M437.65,125h-.34V25h3.92v96.43A3.57,3.57,0,0,1,437.65,125Z" transform="translate(-101.5 -25)"/>
    <path d="M441.23,25h-3.92V125h.34a3.57,3.57,0,0,0,3.58-3.57V25Z" transform="translate(-101.5 -25)"/>
  </g>
  <g>
    <path d="M497.93,125h-.34V25h3.91v96.43A3.57,3.57,0,0,1,497.93,125Z" transform="translate(-101.5 -25)"/>
    <path d="M501.5,25h-3.91V125h.34a3.57,3.57,0,0,0,3.57-3.57V25Z" transform="translate(-101.5 -25)"/>
  </g>
  <g>
    <rect x="366.34" y="4" width="3.91" height="24"/>
    <polygon points="370.25 4 366.34 4 366.34 28 370.25 28 370.25 4 370.25 4"/>
  </g>
  <g>
    <rect x="338.94" width="31.31" height="5"/>
    <polygon points="370.25 0 338.94 0 338.94 5 370.25 5 370.25 0 370.25 0"/>
  </g>
  <g>
    <path d="M465.62,86.31l2,2.57a.36.36,0,0,1,0,.42l-27.27,34.83a.31.31,0,0,1-.5,0l-2.35-3a.36.36,0,0,1,0-.42l26.92-34.39A.71.71,0,0,1,465.62,86.31Z" transform="translate(-101.5 -25)"/>
    <path d="M465,86a.74.74,0,0,0-.59.31L437.52,120.7a.36.36,0,0,0,0,.42l2.35,3a.31.31,0,0,0,.5,0L467.64,89.3a.36.36,0,0,0,0-.42l-2-2.57A.74.74,0,0,0,465,86Z" transform="translate(-101.5 -25)"/>
  </g>
  <g>
    <path d="M465.49,91H453.75V86h11.42a.32.32,0,0,1,.32.32Z" transform="translate(-101.5 -25)"/>
    <path d="M465.17,86H453.75v5h11.74V86.32a.32.32,0,0,0-.32-.32Z" transform="translate(-101.5 -25)"/>
  </g>
  <g>
    <path d="M170.54,86.35l2,2.49a.45.45,0,0,1,0,.5l-27.25,34.8a.28.28,0,0,1-.47,0l-2.34-3a.42.42,0,0,1,0-.5L169.3,86.35A.75.75,0,0,1,170.54,86.35Z" transform="translate(-101.5 -25)"/>
    <path d="M169.92,86a.79.79,0,0,0-.62.33l-26.86,34.31a.42.42,0,0,0,0,.5l2.34,3a.28.28,0,0,0,.23.13.28.28,0,0,0,.24-.13l27.25-34.8a.45.45,0,0,0,0-.5l-2-2.49a.78.78,0,0,0-.62-.33Z" transform="translate(-101.5 -25)"/>
  </g>
  <g>
    <path d="M142.75,125h-.42a.13.13,0,0,1-.13-.13V25.13a.13.13,0,0,1,.13-.13H146a.13.13,0,0,1,.13.13v96.5A3.37,3.37,0,0,1,142.75,125Z" transform="translate(-101.5 -25)"/>
    <path d="M146,25h-3.66a.13.13,0,0,0-.13.13v99.74a.13.13,0,0,0,.13.13h.42a3.37,3.37,0,0,0,3.37-3.37V25.13A.13.13,0,0,0,146,25Z" transform="translate(-101.5 -25)"/>
  </g>
  <g>
    <rect x="43.84" y="23" width="15.66" height="5"/>
    <polygon points="59.49 23 43.84 23 43.84 28 59.49 28 59.49 23 59.49 23"/>
  </g>
  <g>
    <rect x="43.84" width="31.31" height="5"/>
    <polygon points="75.15 0 43.84 0 43.84 5 75.15 5 75.15 0 75.15 0"/>
  </g>
  <g>
    <path d="M379.55,86.35l1.95,2.49a.42.42,0,0,1,0,.5l-27.25,34.8a.28.28,0,0,1-.47,0l-2.34-3a.45.45,0,0,1,0-.5L378.3,86.35A.76.76,0,0,1,379.55,86.35Z" transform="translate(-101.5 -25)"/>
    <path d="M378.92,86a.81.81,0,0,0-.62.33l-26.86,34.31a.45.45,0,0,0,0,.5l2.34,3a.28.28,0,0,0,.24.13.28.28,0,0,0,.23-.13l27.25-34.8a.42.42,0,0,0,0-.5l-1.95-2.49a.81.81,0,0,0-.63-.33Z" transform="translate(-101.5 -25)"/>
  </g>
  <g>
    <path d="M351.75,125h-.42a.12.12,0,0,1-.12-.13V25.13a.12.12,0,0,1,.12-.13H355a.13.13,0,0,1,.13.13v96.5A3.37,3.37,0,0,1,351.75,125Z" transform="translate(-101.5 -25)"/>
    <path d="M355,25h-3.66a.12.12,0,0,0-.12.13v99.74a.12.12,0,0,0,.12.13h.42a3.37,3.37,0,0,0,3.37-3.37V25.13A.13.13,0,0,0,355,25Z" transform="translate(-101.5 -25)"/>
  </g>
  <g>
    <path d="M424.3,121.45h0a.09.09,0,0,1-.13,0L394.43,52.54a.14.14,0,0,1,0-.17l3.25-2.3a.1.1,0,0,1,.14,0l27.94,64.7C426.82,117.18,426.15,120.15,424.3,121.45Z" transform="translate(-101.5 -25)"/>
    <path d="M397.77,50.06h0l-3.25,2.3a.14.14,0,0,0,0,.17l29.74,68.86a.09.09,0,0,0,.08.06h.05c1.85-1.3,2.52-4.27,1.5-6.63l-27.94-64.7a.1.1,0,0,0-.09-.06Z" transform="translate(-101.5 -25)"/>
  </g>
  <g>
    <rect x="252.84" y="23" width="15.66" height="5"/>
    <polygon points="268.49 23 252.84 23 252.84 28 268.49 28 268.49 23 268.49 23"/>
  </g>
  <g>
    <path d="M424.79,53H393.48V48h29.66a1.65,1.65,0,0,1,1.65,1.64Z" transform="translate(-101.5 -25)"/>
    <path d="M423.14,48H393.48v5h31.31V49.64A1.65,1.65,0,0,0,423.14,48Z" transform="translate(-101.5 -25)"/>
  </g>
  <g>
    <rect x="252.84" width="31.31" height="5"/>
    <polygon points="284.15 0 252.84 0 252.84 5 284.15 5 284.15 0 284.15 0"/>
  </g>
  <g>
    <path d="M423.39,52.76l-29.6-23.92v0l1.6-3.23a.79.79,0,0,1,1.24-.36l26.32,21.27a4.56,4.56,0,0,1,.94,5.35l-.46.92Z" transform="translate(-101.5 -25)"/>
    <path d="M396.14,25a.87.87,0,0,0-.76.54l-1.6,3.23v0l29.6,23.92h0l.46-.92a4.56,4.56,0,0,0-.94-5.35L396.62,25.21a.78.78,0,0,0-.48-.18Z" transform="translate(-101.5 -25)"/>
  </g>
  <g>
    <path d="M295,86.35l2,2.49a.42.42,0,0,1,0,.5l-27.25,34.8a.28.28,0,0,1-.47,0l-2.34-3a.45.45,0,0,1,0-.5l26.86-34.31A.75.75,0,0,1,295,86.35Z" transform="translate(-101.5 -25)"/>
    <path d="M294.38,86a.81.81,0,0,0-.62.33L266.9,120.66a.45.45,0,0,0,0,.5l2.34,3a.28.28,0,0,0,.24.13.28.28,0,0,0,.23-.13L297,89.34a.42.42,0,0,0,0-.5l-2-2.49a.78.78,0,0,0-.62-.33Z" transform="translate(-101.5 -25)"/>
  </g>
  <g>
    <path d="M267.21,125h-.42a.12.12,0,0,1-.12-.13V25.13a.12.12,0,0,1,.12-.13h3.66a.13.13,0,0,1,.13.13v96.5A3.37,3.37,0,0,1,267.21,125Z" transform="translate(-101.5 -25)"/>
    <path d="M270.45,25h-3.66a.12.12,0,0,0-.12.13v99.74a.12.12,0,0,0,.12.13h.42a3.37,3.37,0,0,0,3.37-3.37V25.13a.13.13,0,0,0-.13-.13Z" transform="translate(-101.5 -25)"/>
  </g>
  <g>
    <rect x="168.3" y="23" width="15.66" height="5"/>
    <polygon points="183.95 23 168.3 23 168.3 28 183.95 28 183.95 23 183.95 23"/>
  </g>
  <g>
    <rect x="168.3" width="31.31" height="5"/>
    <polygon points="199.61 0 168.3 0 168.3 5 199.61 5 199.61 0 199.61 0"/>
  </g>
  <rect x="81.41" width="3.91" height="100"/>
  <rect x="115.07" width="3.91" height="100"/>
  <rect x="84.54" y="95" width="31.31" height="5"/>
  <rect x="84.54" width="31.31" height="5"/>
  <rect x="126.03" y="23" width="31.31" height="5"/>
  <g>
    <path d="M305,125h-3.78a.13.13,0,0,1-.13-.13V55.13a.13.13,0,0,1,.13-.13h2.28a1.5,1.5,0,0,1,1.5,1.5Z" transform="translate(-101.5 -25)" fill="#fede17"/>
    <path d="M333.2,95H331a1.66,1.66,0,0,1-1.66-1.66V25.13a.13.13,0,0,1,.13-.13h3.66a.12.12,0,0,1,.12.13Z" transform="translate(-101.5 -25)" fill="#fede17"/>
    <path d="M332.83,91.48l-2.4,3.07a.45.45,0,0,1-.74,0l-28.18-36,2.57-3.27a.23.23,0,0,1,.4,0Z" transform="translate(-101.5 -25)" fill="#fede17"/>
    <path d="M345.07,50.74l-2.93,2.16a.47.47,0,0,1-.72-.24l-11.48-25.4,2.92-2.15a.49.49,0,0,1,.75.26Z" transform="translate(-101.5 -25)" fill="#fede17"/>
    <path d="M317.42,50.74l2.93,2.16a.47.47,0,0,0,.72-.24l11.48-25.4-2.92-2.15a.48.48,0,0,0-.74.26Z" transform="translate(-101.5 -25)" fill="#fede17"/>
  </g>
  <path d="M291.19,0h3.35a.57.57,0,0,1,.57.57V100a0,0,0,0,1,0,0h-3.91a0,0,0,0,1,0,0V0A0,0,0,0,1,291.19,0Z"/>
  <g>
    <polygon points="399.53 24.54 396.76 28.08 377.61 3.61 380.38 0.07 399.53 24.54"/>
    <polygon points="380.38 0.07 377.61 3.61 396.76 28.08 399.53 24.54 380.38 0.07 380.38 0.07"/>
  </g>
</svg>
